<svg xmlns="http://www.w3.org/2000/svg" width="28.573" height="28.824" viewBox="0 0 28.573 28.824"><defs><style>.a{fill:#fff;}</style></defs><g transform="translate(-0.21)"><g transform="translate(0.21)"><path class="a" d="M14.934,12.085a1.2,1.2,0,0,0,1.2-1.2V6.2a3.8,3.8,0,1,1,7.6,0v4.684a1.2,1.2,0,1,0,2.4,0V6.2a6.2,6.2,0,1,0-12.4,0v4.684A1.2,1.2,0,0,0,14.934,12.085Z" transform="translate(-5.613)"/><path class="a" d="M28.308,15.631H21.932v1.5a2.4,2.4,0,0,1-4.8,0v-1.5H11.934v1.5a2.4,2.4,0,0,1-4.8,0v-1.5H.684a.449.449,0,0,0-.458.583l4.2,17.113a2.463,2.463,0,0,0,2.261,1.741H22.3a2.466,2.466,0,0,0,2.262-1.741l4.2-17.113A.449.449,0,0,0,28.308,15.631Z" transform="translate(-0.21 -6.245)"/></g></g></svg>