<svg id="Camera" xmlns="http://www.w3.org/2000/svg" width="20" height="20" viewBox="0 0 20 20">
  <rect id="Rectangle_252" data-name="Rectangle 252" width="20" height="20" fill="none"/>
  <path id="Path_110" data-name="Path 110" d="M10,12.5A2.5,2.5,0,1,0,7.5,10,2.507,2.507,0,0,0,10,12.5ZM10,5a5,5,0,1,1-5,5A5.015,5.015,0,0,1,10,5Zm7.5,13.75H2.5A2.468,2.468,0,0,1,.75,18,2.468,2.468,0,0,1,0,16.25V5A2.507,2.507,0,0,1,2.5,2.5h2L6.375.625A2.07,2.07,0,0,1,7.875,0H12.25a2.007,2.007,0,0,1,1.375.625L15.5,2.5h2A2.507,2.507,0,0,1,20,5V16.25A2.507,2.507,0,0,1,17.5,18.75Z" transform="translate(0 1.25)" fill="#fff" fill-rule="evenodd"/>
</svg>
