<svg xmlns="http://www.w3.org/2000/svg" width="33.889" height="18.978" viewBox="0 0 33.889 18.978"><defs><style>.a{fill:#fff;}</style></defs><g transform="translate(0 29.1)"><path class="a" d="M16.944,20.9C5.828,20.9,0,29.09,0,30.389s5.828,9.489,16.944,9.489,16.944-8.19,16.944-9.489S28.06,20.9,16.944,20.9Zm0,16.788a7.3,7.3,0,1,1,0-14.6,7.3,7.3,0,1,1,0,14.6Zm3.765-7.3a3.767,3.767,0,1,1-3.765-3.65c1.124,0-.69,2.892,0,3.65C17.53,31.032,20.71,29.463,20.71,30.389Z" transform="translate(0 -50)"/></g></svg>