<svg xmlns="http://www.w3.org/2000/svg" width="24.819" height="18.962" viewBox="0 0 24.819 18.962"><defs><style>.a{fill:#cad1d5;}</style></defs><g transform="translate(0 -35.048)"><g transform="translate(0 35.048)"><path class="a" d="M35.719,35.049h0a.875.875,0,0,0-.622.258.884.884,0,0,0-.261.63V49.255a.891.891,0,0,0,.889.888c2.067,0,5.531.436,7.92,2.936V39.142a.851.851,0,0,0-.122-.45C41.559,35.534,37.791,35.054,35.719,35.049Z" transform="translate(-31.922 -35.049)"/><path class="a" d="M165.56,49.254V35.936a.886.886,0,0,0-.884-.888h0c-2.072,0-5.84.485-7.8,3.643a.851.851,0,0,0-.122.45V53.078c2.389-2.5,5.853-2.931,7.92-2.936A.891.891,0,0,0,165.56,49.254Z" transform="translate(-143.652 -35.048)"/><path class="a" d="M181.083,71.8h-.644V82.936a2.272,2.272,0,0,1-2.265,2.267,9.851,9.851,0,0,0-6.692,2.285,21.38,21.38,0,0,1,9.4.181.888.888,0,0,0,1.087-.865V72.689A.889.889,0,0,0,181.083,71.8Z" transform="translate(-157.152 -68.73)"/><path class="a" d="M1.532,82.936V71.8H.888A.889.889,0,0,0,0,72.689V86.8a.888.888,0,0,0,1.087.865,21.379,21.379,0,0,1,9.4-.181A9.851,9.851,0,0,0,3.8,85.2,2.272,2.272,0,0,1,1.532,82.936Z" transform="translate(0 -68.73)"/></g></g></svg>