<svg xmlns="http://www.w3.org/2000/svg" width="29.541" height="19.694" viewBox="0 0 29.541 19.694"><defs><style>.a{fill:#cad1d5;}</style></defs><path class="a" d="M19.105,10a1.9,1.9,0,0,0-1.82,1.969v.624L3.164,17.41a1.639,1.639,0,0,0-1.572-1.5A1.663,1.663,0,0,0,0,17.631v4.431a1.663,1.663,0,0,0,1.592,1.723,1.639,1.639,0,0,0,1.572-1.5l.971.331a1.691,1.691,0,0,0-.329.607A1.708,1.708,0,0,0,4.8,25.33l5.193,1.821h0a1.436,1.436,0,0,0,.475.082,1.567,1.567,0,0,0,1.473-1.159,1.786,1.786,0,0,0,.049-.78l5.3,1.807v.624a1.825,1.825,0,1,0,3.639,0V11.969A1.9,1.9,0,0,0,19.105,10Zm-8.03,15.771a.629.629,0,0,1-.8.444L5.081,24.393a.7.7,0,0,1-.41-.869.629.629,0,0,1,.8-.443L10.666,24.9A.7.7,0,0,1,11.076,25.771Zm-8.8-3.708a.713.713,0,0,1-.682.739.713.713,0,0,1-.682-.739V17.631a.713.713,0,0,1,.682-.739.713.713,0,0,1,.682.739v4.431Zm.91-.8V18.436l14.1-4.811V26.068Zm16.831,6.467a.913.913,0,1,1-1.82,0V11.969a.913.913,0,1,1,1.82,0Z" transform="translate(0 -10)"/><path class="a" d="M54.231,29h-.615a.615.615,0,0,0,0,1.231h.615a.615.615,0,1,0,0-1.231Z" transform="translate(-27.767 -19.768)"/><path class="a" d="M49.615,30.231h.615a.615.615,0,1,0,0-1.231h-.615a.615.615,0,0,0,0,1.231Z" transform="translate(-26.229 -19.768)"/><path class="a" d="M58.231,29h-.615a.615.615,0,0,0,0,1.231h.615a.615.615,0,0,0,0-1.231Z" transform="translate(-29.305 -19.768)"/><path class="a" d="M52.443,15.495a.614.614,0,0,0,.435-.18l.435-.435a.615.615,0,0,0-.87-.87l-.435.435a.615.615,0,0,0,.435,1.051Z" transform="translate(-27.316 -11.472)"/><path class="a" d="M55.272,12.666a.614.614,0,0,0,.435-.18l.435-.435a.615.615,0,1,0-.87-.87l-.435.435a.615.615,0,0,0,.435,1.051Z" transform="translate(-28.404 -10.384)"/><path class="a" d="M49.615,18.323a.614.614,0,0,0,.435-.18l.435-.435a.615.615,0,0,0-.87-.87l-.435.435a.615.615,0,0,0,.435,1.051Z" transform="translate(-26.229 -13.439)"/><path class="a" d="M50,23.08l-.583.194a.615.615,0,1,0,.389,1.167l.583-.194A.615.615,0,0,0,50,23.08Z" transform="translate(-26.229 -16.722)"/><path class="a" d="M53.41,23.209a.613.613,0,0,0,.194-.032l.583-.194a.615.615,0,0,0-.39-1.167l-.583.194a.616.616,0,0,0,.2,1.2Z" transform="translate(-27.688 -16.071)"/><path class="a" d="M56.621,21.522a.616.616,0,0,0,.584.422.626.626,0,0,0,.194-.031l.583-.194a.616.616,0,1,0-.388-1.169l-.583.194A.617.617,0,0,0,56.621,21.522Z" transform="translate(-29.147 -15.419)"/><path class="a" d="M55.707,46.473a.615.615,0,0,0-.87.87l.435.435a.615.615,0,0,0,.87-.87Z" transform="translate(-28.404 -28.88)"/><path class="a" d="M52.878,43.644a.615.615,0,0,0-.87.87l.435.435a.615.615,0,1,0,.87-.87Z" transform="translate(-27.316 -27.792)"/><path class="a" d="M50.05,40.816a.615.615,0,1,0-.87.87l.435.435a.615.615,0,0,0,.87-.87Z" transform="translate(-26.229 -25.826)"/><path class="a" d="M53.216,37.1l.583.194a.615.615,0,0,0,.389-1.167l-.583-.194a.615.615,0,1,0-.389,1.167Z" transform="translate(-27.688 -23.344)"/><path class="a" d="M50.394,34.862l-.583-.194a.615.615,0,0,0-.39,1.167L50,36.03a.615.615,0,0,0,.39-1.167Z" transform="translate(-26.229 -22.693)"/><path class="a" d="M57.983,37.391,57.4,37.2a.616.616,0,0,0-.388,1.169l.583.194a.626.626,0,0,0,.194.031.616.616,0,0,0,.194-1.2Z" transform="translate(-29.147 -23.996)"/></svg>