<svg xmlns="http://www.w3.org/2000/svg" width="20.541" height="19.886" viewBox="0 0 20.541 19.886"><defs><style>.a{fill:#cad1d5;}</style></defs><g transform="translate(0 -4.89)"><path class="a" d="M20.283,14.592a.979.979,0,0,0-.08-1.4l-9.18-8.032a1.144,1.144,0,0,0-1.493.017L.319,13.619a.974.974,0,0,0-.044,1.4l.231.241a1.007,1.007,0,0,0,1.382.106l.688-.616v9.025a1,1,0,0,0,1,1h3.59a1,1,0,0,0,1-1V17.46h4.58v6.314a.947.947,0,0,0,.941,1H17.5a1,1,0,0,0,1-1v-8.9l.425.373c.234.206.726.041,1.1-.369Z" transform="translate(0)"/></g></svg>