<svg xmlns="http://www.w3.org/2000/svg" width="15.936" height="14.999" viewBox="0 0 15.936 14.999"><defs><style>.a{fill:#dbd0ae;}</style></defs><path class="a" d="M14.55,10a1.448,1.448,0,0,0-1.386,1.5v.475L2.409,15.644a1.249,1.249,0,0,0-1.2-1.144A1.267,1.267,0,0,0,0,15.812v3.375A1.267,1.267,0,0,0,1.213,20.5a1.249,1.249,0,0,0,1.2-1.144l.739.252a1.288,1.288,0,0,0-.25.462,1.3,1.3,0,0,0,.758,1.606l3.955,1.387h0a1.094,1.094,0,0,0,.362.062,1.193,1.193,0,0,0,1.122-.883,1.36,1.36,0,0,0,.037-.594l4.033,1.377V23.5a1.39,1.39,0,1,0,2.771,0v-12A1.448,1.448,0,0,0,14.55,10ZM8.435,22.011a.479.479,0,0,1-.611.338L3.869,20.962a.535.535,0,0,1-.312-.661.479.479,0,0,1,.611-.337l3.955,1.387A.536.536,0,0,1,8.435,22.011Zm-6.7-2.824a.543.543,0,0,1-.52.562.543.543,0,0,1-.52-.562V15.812a.543.543,0,0,1,.52-.562.543.543,0,0,1,.52.562v3.375Zm.693-.613V16.425l10.74-3.664v9.477ZM15.243,23.5a.7.7,0,1,1-1.386,0v-12a.7.7,0,1,1,1.386,0Z" transform="translate(0 -10)"/></svg>