<svg xmlns="http://www.w3.org/2000/svg" width="22.096" height="22.097" viewBox="0 0 22.096 22.097"><defs><style>.a{fill:#cad1d5;fill-rule:evenodd;}</style></defs><g transform="translate(-0.003 0)"><g transform="translate(0.003 0)"><path class="a" d="M22.03,9.822a.719.719,0,0,0-.71-.544,2.44,2.44,0,0,1-1.67-4.246.614.614,0,0,0,.067-.833,10.933,10.933,0,0,0-1.75-1.768.615.615,0,0,0-.84.068,2.546,2.546,0,0,1-2.756.619,2.454,2.454,0,0,1-1.492-2.4.613.613,0,0,0-.542-.645A11.03,11.03,0,0,0,9.851.067.615.615,0,0,0,9.3.7,2.458,2.458,0,0,1,7.791,3.057a2.553,2.553,0,0,1-2.735-.623.616.616,0,0,0-.834-.07A10.974,10.974,0,0,0,2.435,4.131a.615.615,0,0,0,.066.84,2.448,2.448,0,0,1,.618,2.757,2.554,2.554,0,0,1-2.4,1.493.6.6,0,0,0-.638.542,11.068,11.068,0,0,0,0,2.513.731.731,0,0,0,.724.543A2.423,2.423,0,0,1,3.07,14.333a2.457,2.457,0,0,1-.618,2.732.614.614,0,0,0-.067.833,10.973,10.973,0,0,0,1.748,1.768.614.614,0,0,0,.841-.067,2.543,2.543,0,0,1,2.754-.62,2.45,2.45,0,0,1,1.495,2.4.614.614,0,0,0,.542.645,11,11,0,0,0,2.486.007A.615.615,0,0,0,12.8,21.4a2.456,2.456,0,0,1,1.512-2.356,2.55,2.55,0,0,1,2.736.623.617.617,0,0,0,.834.07,11,11,0,0,0,1.787-1.767.613.613,0,0,0-.066-.84,2.448,2.448,0,0,1-.619-2.756,2.473,2.473,0,0,1,2.26-1.5l.137,0a.615.615,0,0,0,.647-.542A11.058,11.058,0,0,0,22.03,9.822ZM11.068,14.757a3.685,3.685,0,1,1,3.685-3.685A3.689,3.689,0,0,1,11.068,14.757Z" transform="translate(-0.003 0)"/></g></g></svg>