<svg xmlns="http://www.w3.org/2000/svg" width="48.765" height="48.766" viewBox="0 0 48.765 48.766"><defs><style>.a{fill:#fff;}</style></defs><g transform="translate(-0.002 0)"><g transform="translate(0.002 0)"><g transform="translate(24.215)"><path class="a" d="M78.105.131c.006,2.481.069,4.96.061,7.441a.279.279,0,0,0,.557,0A54.235,54.235,0,0,0,78.367.1c-.022-.152-.262-.111-.262.035Z" transform="translate(-78.105 0)"/></g><g transform="translate(24.215 40.924)"><path class="a" d="M78.105,132.131c.006,2.481.069,4.96.061,7.441a.279.279,0,0,0,.557,0,54.237,54.237,0,0,0-.357-7.476c-.022-.152-.262-.111-.262.035Z" transform="translate(-78.105 -132)"/></g><g transform="translate(40.923 24.078)"><path class="a" d="M139.708,77.661c-2.48.006-4.96.069-7.441.061a.279.279,0,0,0,0,.557,54.234,54.234,0,0,0,7.476-.357c.152-.022.111-.262-.035-.262Z" transform="translate(-131.998 -77.661)"/></g><g transform="translate(0 24.078)"><path class="a" d="M7.712,77.662c-2.48.006-4.96.069-7.441.061a.279.279,0,0,0,0,.557,54.23,54.23,0,0,0,7.476-.357c.152-.022.111-.262-.035-.262Z" transform="translate(-0.002 -77.662)"/></g></g><g transform="translate(7.002 7.008)"><g transform="translate(29.083 0.002)"><path class="a" d="M121.687,22.648c-1.748,1.76-3.458,3.556-5.218,5.3a.279.279,0,0,0,.394.394,53.8,53.8,0,0,0,5.033-5.537c.093-.124-.105-.266-.209-.162Z" transform="translate(-116.387 -22.612)"/></g><g transform="translate(0.145 28.94)"><path class="a" d="M28.349,115.986c-1.748,1.76-3.458,3.556-5.218,5.3a.279.279,0,0,0,.394.394,53.8,53.8,0,0,0,5.033-5.537c.093-.123-.105-.266-.209-.161Z" transform="translate(-23.049 -115.95)"/></g><g transform="translate(28.937 28.937)"><path class="a" d="M121.7,121.241c-1.76-1.748-3.556-3.458-5.3-5.218a.279.279,0,0,0-.394.394,53.727,53.727,0,0,0,5.537,5.033c.123.092.266-.105.161-.209Z" transform="translate(-115.916 -115.94)"/></g><path class="a" d="M28.361,27.906c-1.76-1.748-3.556-3.458-5.3-5.218a.279.279,0,0,0-.394.394A53.69,53.69,0,0,0,28.2,28.115c.123.092.266-.105.161-.209Z" transform="translate(-22.58 -22.605)"/></g><g transform="translate(1.826 1.688)"><g transform="translate(37.917 13.293)"><path class="a" d="M135.229,48.33c-2.29.938-4.559,1.926-6.855,2.851-.33.133-.184.673.149.537a54.114,54.114,0,0,0,6.81-3.144c.126-.074.04-.3-.1-.243Z" transform="translate(-128.188 -48.32)"/></g><g transform="translate(0 28.691)"><path class="a" d="M12.928,98c-2.29.938-4.559,1.927-6.855,2.851-.329.133-.184.673.149.537a54.052,54.052,0,0,0,6.81-3.144c.126-.074.04-.3-.1-.243Z" transform="translate(-5.887 -97.986)"/></g><g transform="translate(28.54 37.916)"><path class="a" d="M101.351,134.781c-.938-2.29-1.927-4.559-2.851-6.855-.133-.33-.673-.184-.537.148a53.989,53.989,0,0,0,3.145,6.81c.073.127.3.04.243-.1Z" transform="translate(-97.942 -127.741)"/></g><g transform="translate(13.142)"><path class="a" d="M51.687,12.485c-.938-2.29-1.927-4.558-2.85-6.855-.133-.33-.673-.184-.537.148a53.916,53.916,0,0,0,3.144,6.809c.073.127.3.04.243-.1Z" transform="translate(-48.278 -5.445)"/></g></g><g transform="translate(1.716 1.709)"><g transform="translate(28.785)"><path class="a" d="M101.119,5.6c-.92,2.309-1.789,4.638-2.723,6.943-.135.332.406.478.537.148a53.548,53.548,0,0,0,2.443-7.02.133.133,0,0,0-.257-.071Z" transform="translate(-98.375 -5.513)"/></g><g transform="translate(13.526 37.974)"><path class="a" d="M51.9,128.086c-.92,2.309-1.789,4.638-2.723,6.943-.135.332.406.478.537.148a53.553,53.553,0,0,0,2.443-7.02.133.133,0,0,0-.257-.071Z" transform="translate(-49.158 -127.995)"/></g><g transform="translate(37.972 28.652)"><path class="a" d="M135.286,100.674c-2.309-.92-4.638-1.788-6.943-2.723-.332-.135-.478.406-.149.537a53.506,53.506,0,0,0,7.02,2.442.133.133,0,0,0,.071-.257Z" transform="translate(-128.009 -97.93)"/></g><g transform="translate(0 13.394)"><path class="a" d="M12.808,51.459c-2.309-.92-4.638-1.788-6.942-2.723-.332-.135-.478.406-.149.537a53.469,53.469,0,0,0,7.019,2.442.133.133,0,0,0,.071-.257Z" transform="translate(-5.531 -48.715)"/></g></g><g transform="translate(5.451 5.456)"><g transform="translate(21.345)"><path class="a" d="M87.542,17.693c-.406,1.908-.726,3.836-1.109,5.75-.07.351.47.5.537.148a37.912,37.912,0,0,0,.833-5.863.134.134,0,0,0-.262-.035Z" transform="translate(-86.427 -17.598)"/></g><g transform="translate(15.14 31.666)"><path class="a" d="M67.528,119.83c-.407,1.908-.726,3.836-1.109,5.75-.07.351.47.5.537.148a37.91,37.91,0,0,0,.833-5.863.134.134,0,0,0-.261-.035Z" transform="translate(-66.413 -119.735)"/></g><g transform="translate(31.665 21.201)"><path class="a" d="M125.813,87.1c-1.909-.406-3.836-.725-5.75-1.108-.352-.07-.5.47-.148.537a37.917,37.917,0,0,0,5.863.833.134.134,0,0,0,.035-.262Z" transform="translate(-119.713 -85.982)"/></g><g transform="translate(0 14.997)"><path class="a" d="M23.678,67.084c-1.908-.406-3.836-.725-5.75-1.108-.352-.07-.5.47-.149.537a37.9,37.9,0,0,0,5.862.833.134.134,0,0,0,.036-.262Z" transform="translate(-17.579 -65.97)"/></g></g><g transform="translate(8.408 8.268)"><g transform="translate(26.779 5.203)"><path class="a" d="M118.466,43.474c-1.637,1.064-3.227,2.2-4.851,3.283-.3.2-.017.683.281.481a37.775,37.775,0,0,0,4.732-3.555.134.134,0,0,0-.162-.209Z" transform="translate(-113.487 -43.453)"/></g><g transform="translate(0 23.207)"><path class="a" d="M32.093,101.545c-1.637,1.063-3.227,2.2-4.851,3.283-.3.2-.017.683.281.481a37.771,37.771,0,0,0,4.732-3.555.134.134,0,0,0-.162-.209Z" transform="translate(-27.114 -101.524)"/></g><g transform="translate(23.055 26.778)"><path class="a" d="M105.289,118.019c-1.064-1.636-2.2-3.227-3.283-4.851-.2-.3-.683-.016-.481.281a37.683,37.683,0,0,0,3.555,4.731.134.134,0,0,0,.209-.161Z" transform="translate(-101.476 -113.041)"/></g><g transform="translate(5.051)"><path class="a" d="M47.218,31.648c-1.064-1.636-2.2-3.227-3.283-4.851-.2-.3-.683-.016-.481.281a37.676,37.676,0,0,0,3.554,4.731.134.134,0,0,0,.209-.161Z" transform="translate(-43.406 -26.67)"/></g></g><g transform="translate(5.477 5.339)"><g transform="translate(31.674 15.12)"><path class="a" d="M125.792,65.993c-1.928.343-3.842.774-5.767,1.141-.352.067-.2.607.149.537a37.658,37.658,0,0,0,5.689-1.421.133.133,0,0,0-.071-.257Z" transform="translate(-119.825 -65.99)"/></g><g transform="translate(0 21.286)"><path class="a" d="M23.63,85.88c-1.928.343-3.842.774-5.767,1.141-.352.067-.2.607.149.537A37.614,37.614,0,0,0,23.7,86.137a.133.133,0,0,0-.071-.257Z" transform="translate(-17.662 -85.877)"/></g><g transform="translate(21.144 31.672)"><path class="a" d="M87.544,125.346c-.343-1.928-.774-3.842-1.141-5.766-.067-.352-.607-.2-.537.148a37.494,37.494,0,0,0,1.421,5.689.133.133,0,0,0,.257-.071Z" transform="translate(-85.86 -119.378)"/></g><g transform="translate(14.978)"><path class="a" d="M67.657,23.187c-.343-1.928-.774-3.842-1.141-5.766-.067-.352-.607-.2-.537.148A37.555,37.555,0,0,0,67.4,23.258a.133.133,0,0,0,.257-.071Z" transform="translate(-65.973 -17.22)"/></g></g><g transform="translate(8.145 8.142)"><g transform="translate(23.275)"><path class="a" d="M104.568,26.327c-1.091,1.625-2.11,3.3-3.182,4.937-.2.3.287.583.481.281a37.465,37.465,0,0,0,2.931-5.084.133.133,0,0,0-.23-.134Z" transform="translate(-101.34 -26.262)"/></g><g transform="translate(5.711 27.069)"><path class="a" d="M47.915,113.637c-1.09,1.625-2.11,3.3-3.182,4.937-.2.3.287.583.481.281a37.466,37.466,0,0,0,2.931-5.084.133.133,0,0,0-.23-.135Z" transform="translate(-44.686 -113.573)"/></g><g transform="translate(27.068 23.138)"><path class="a" d="M118.92,104.121c-1.625-1.09-3.3-2.11-4.937-3.182-.3-.2-.583.287-.281.481a37.461,37.461,0,0,0,5.083,2.931.133.133,0,0,0,.134-.23Z" transform="translate(-113.573 -100.893)"/></g><g transform="translate(0 5.575)"><path class="a" d="M31.613,47.471c-1.625-1.09-3.3-2.11-4.936-3.182-.3-.2-.582.287-.281.481A37.407,37.407,0,0,0,31.479,47.7a.133.133,0,0,0,.134-.23Z" transform="translate(-26.266 -44.243)"/></g></g><g transform="translate(9.515 9.376)"><g transform="translate(1.142 1.273)"><g transform="translate(17.549)"><path class="a" d="M92.776,34.417C92.134,35.769,91.6,37.173,91,38.548a.277.277,0,1,0,.509.215,24.744,24.744,0,0,0,1.507-4.243c.031-.141-.175-.245-.243-.1Z" transform="translate(-90.973 -34.349)"/></g><g transform="translate(7.854 22.854)"><path class="a" d="M61.506,108.132c-.643,1.352-1.182,2.755-1.773,4.131a.277.277,0,1,0,.509.215,24.8,24.8,0,0,0,1.508-4.243c.03-.14-.176-.245-.243-.1Z" transform="translate(-59.702 -108.064)"/></g><g transform="translate(22.854 17.417)"><path class="a" d="M112.623,92.331c-1.352-.642-2.756-1.181-4.131-1.773a.277.277,0,1,0-.215.509,24.781,24.781,0,0,0,4.243,1.507c.141.03.245-.176.1-.244Z" transform="translate(-108.084 -90.528)"/></g><g transform="translate(0 7.723)"><path class="a" d="M38.909,61.061c-1.352-.642-2.755-1.181-4.131-1.773a.277.277,0,1,0-.215.509A24.761,24.761,0,0,0,38.807,61.3c.14.031.245-.175.1-.243Z" transform="translate(-34.371 -59.258)"/></g></g><g transform="translate(1.101 1.101)"><g transform="translate(23.015 8.143)"><path class="a" d="M112.837,60.068c-1.411.5-2.785,1.114-4.177,1.668-.331.132-.183.673.148.537a25.184,25.184,0,0,0,4.131-1.962c.122-.078.046-.3-.1-.243Z" transform="translate(-108.474 -60.06)"/></g><g transform="translate(0 17.449)"><path class="a" d="M38.6,90.081c-1.411.5-2.785,1.113-4.177,1.668-.33.132-.183.673.148.537A25.242,25.242,0,0,0,38.7,90.324c.122-.078.045-.3-.1-.243Z" transform="translate(-34.239 -90.073)"/></g><g transform="translate(17.295 23.015)"><path class="a" d="M92.25,112.391c-.5-1.411-1.114-2.785-1.668-4.176-.132-.331-.673-.183-.537.148a25.142,25.142,0,0,0,1.961,4.131c.078.122.3.045.243-.1Z" transform="translate(-90.024 -108.029)"/></g><g transform="translate(7.991)"><path class="a" d="M62.238,38.156c-.5-1.411-1.113-2.784-1.667-4.176-.132-.331-.673-.183-.537.148a25.15,25.15,0,0,0,1.961,4.131c.078.122.3.046.244-.1Z" transform="translate(-60.012 -33.794)"/></g></g><g transform="translate(24.823 14.878)"><path class="a" d="M115.536,78.322c-1.5-.088-3.012-.059-4.515-.09a.279.279,0,0,0,0,.557,25.193,25.193,0,0,0,4.551-.206c.155-.027.107-.253-.036-.262Z" transform="translate(-110.752 -78.232)"/></g><g transform="translate(0 14.495)"><path class="a" d="M35.471,77.085c-1.5-.088-3.012-.059-4.515-.09a.279.279,0,0,0,0,.557,25.193,25.193,0,0,0,4.551-.206c.156-.027.107-.253-.036-.262Z" transform="translate(-30.687 -76.995)"/></g><g transform="translate(14.429 24.822)"><path class="a" d="M77.7,115.088c.087-1.5.058-3.011.09-4.515a.279.279,0,0,0-.557,0,25.076,25.076,0,0,0,.206,4.551c.027.155.253.107.262-.036Z" transform="translate(-77.225 -110.303)"/></g><g transform="translate(14.812)"><path class="a" d="M78.942,35.026c.087-1.5.058-3.011.09-4.515a.279.279,0,0,0-.557,0,25.068,25.068,0,0,0,.206,4.55c.027.156.254.107.262-.035Z" transform="translate(-78.463 -30.242)"/></g><g transform="translate(4.22 4.352)"><g transform="translate(17.65 0.017)"><path class="a" d="M104.508,44.371c-1.1,1.02-2.132,2.124-3.2,3.184a.279.279,0,0,0,.394.394,24.986,24.986,0,0,0,3.014-3.417c.088-.13-.1-.26-.209-.162Z" transform="translate(-101.227 -44.336)"/></g><g transform="translate(0.132 17.609)"><path class="a" d="M48,101.11c-1.1,1.02-2.132,2.125-3.2,3.184a.279.279,0,0,0,.394.394,24.907,24.907,0,0,0,3.014-3.417c.088-.13-.1-.261-.209-.162Z" transform="translate(-44.724 -101.075)"/></g><g transform="translate(17.591 17.517)"><path class="a" d="M104.7,104.06c-1.02-1.1-2.124-2.132-3.183-3.2a.279.279,0,0,0-.394.394,24.907,24.907,0,0,0,3.416,3.014c.13.088.26-.1.161-.209Z" transform="translate(-101.036 -100.779)"/></g><path class="a" d="M47.958,47.56c-1.02-1.1-2.124-2.132-3.183-3.2a.279.279,0,0,0-.394.394A24.9,24.9,0,0,0,47.8,47.77c.13.088.26-.1.162-.209Z" transform="translate(-44.298 -44.28)"/></g></g><g transform="translate(19.895 19.756)"><g transform="translate(0.335 0.467)"><g transform="translate(5.128)"><path class="a" d="M82.446,65.269a4.34,4.34,0,0,0-.628,1.182.277.277,0,1,0,.509.215,3.019,3.019,0,0,0,.346-1.3.135.135,0,0,0-.228-.094Z" transform="translate(-81.787 -65.228)"/></g><g transform="translate(2.293 6.682)"><path class="a" d="M73.3,86.822a4.338,4.338,0,0,0-.628,1.183.277.277,0,1,0,.509.215,3.021,3.021,0,0,0,.346-1.3.134.134,0,0,0-.228-.094Z" transform="translate(-72.644 -86.781)"/></g><g transform="translate(6.682 4.995)"><path class="a" d="M88.391,82a4.347,4.347,0,0,0-1.183-.628.277.277,0,1,0-.215.509,3.021,3.021,0,0,0,1.3.346A.134.134,0,0,0,88.391,82Z" transform="translate(-86.8 -81.34)"/></g><g transform="translate(0 2.161)"><path class="a" d="M66.838,72.857a4.361,4.361,0,0,0-1.183-.628.277.277,0,1,0-.215.509,3.017,3.017,0,0,0,1.3.347.134.134,0,0,0,.094-.228Z" transform="translate(-65.247 -72.197)"/></g></g><g transform="translate(0.319 0.319)"><g transform="translate(6.73 2.481)"><path class="a" d="M88.381,72.753a4.362,4.362,0,0,0-1.284.393.277.277,0,1,0,.215.509,3.011,3.011,0,0,0,1.164-.675.135.135,0,0,0-.094-.228Z" transform="translate(-86.901 -72.752)"/></g><g transform="translate(0 5.202)"><path class="a" d="M66.675,81.529a4.365,4.365,0,0,0-1.284.393.277.277,0,1,0,.215.509,3.012,3.012,0,0,0,1.164-.675.134.134,0,0,0-.094-.227Z" transform="translate(-65.195 -81.528)"/></g><g transform="translate(5.065 6.729)"><path class="a" d="M82.465,87.934a4.37,4.37,0,0,0-.393-1.284.277.277,0,1,0-.509.215,3.008,3.008,0,0,0,.675,1.164.135.135,0,0,0,.228-.094Z" transform="translate(-81.533 -86.455)"/></g><g transform="translate(2.345)"><path class="a" d="M73.69,66.23a4.36,4.36,0,0,0-.393-1.284.277.277,0,1,0-.509.215,3,3,0,0,0,.675,1.163.135.135,0,0,0,.228-.094Z" transform="translate(-72.758 -64.75)"/></g></g><g transform="translate(7.258 4.343)"><path class="a" d="M89.2,77.865a4.482,4.482,0,0,0-1.355-.134.279.279,0,0,0,0,.557,3.12,3.12,0,0,0,1.387-.18c.112-.055.067-.207-.032-.243Z" transform="translate(-87.577 -77.73)"/></g><g transform="translate(0 4.231)"><path class="a" d="M65.791,77.5a4.482,4.482,0,0,0-1.355-.134.279.279,0,0,0,0,.557,3.12,3.12,0,0,0,1.387-.18c.112-.055.068-.207-.032-.243Z" transform="translate(-64.166 -77.368)"/></g><g transform="translate(4.215 7.257)"><path class="a" d="M78.185,88.754a4.483,4.483,0,0,0,.134-1.356.279.279,0,0,0-.557,0,3.12,3.12,0,0,0,.18,1.387.134.134,0,0,0,.243-.032Z" transform="translate(-77.761 -87.129)"/></g><g transform="translate(4.327)"><path class="a" d="M78.546,65.346a4.472,4.472,0,0,0,.134-1.355.279.279,0,0,0-.557,0,3.124,3.124,0,0,0,.18,1.387.135.135,0,0,0,.243-.032Z" transform="translate(-78.122 -63.721)"/></g><g transform="translate(1.226 1.264)"><g transform="translate(5.161 0.112)"><path class="a" d="M85.884,68.175a4.47,4.47,0,0,0-1.035.879c-.258.25.145.654.394.394a3.123,3.123,0,0,0,.836-1.123.134.134,0,0,0-.2-.151Z" transform="translate(-84.766 -68.16)"/></g><g transform="translate(0.039 5.255)"><path class="a" d="M69.363,84.765a4.478,4.478,0,0,0-1.035.879c-.258.25.145.653.394.394a3.121,3.121,0,0,0,.836-1.123.134.134,0,0,0-.2-.15Z" transform="translate(-68.245 -84.75)"/></g><g transform="translate(5.143 5.122)"><path class="a" d="M86.066,85.438a4.484,4.484,0,0,0-.879-1.035c-.251-.258-.653.145-.394.394a3.117,3.117,0,0,0,1.123.837.135.135,0,0,0,.15-.2Z" transform="translate(-84.709 -84.32)"/></g><path class="a" d="M69.476,68.917a4.49,4.49,0,0,0-.879-1.035c-.251-.259-.653.145-.394.394a3.121,3.121,0,0,0,1.123.837.135.135,0,0,0,.15-.2Z" transform="translate(-68.119 -67.799)"/></g></g></g></svg>