<svg xmlns="http://www.w3.org/2000/svg" width="88.751mm" height="19.783mm" viewBox="0 0 251.578 56.079">
  <title>logo</title>
  <g>
    <path d="M18.439,0C7.565,0,0,7.959,0,19.07c0,9.22,7.092,18.755,17.415,18.755,10.559,0,15.208-6.225,16.469-10.323l-1.339-.709c-1.97,3.7-8.274,5.279-12.53,4.334-5.279-1.182-9.219-5.2-9.85-12.924H35.224C35.224,6.507,29.043,0,18.439,0Z" style="fill: #231815"/>
    <path d="M59.976,2.049c9.141-.079,3.94,11.978,3.94,11.978L59.74,24.665,51.387,6.856s-2.049-4.807,2.049-4.807V.71h-18.6V2.049A4.736,4.736,0,0,1,39.8,5.123S49.81,26.556,54.7,37.825L51.7,45.942c-1.261,3.309-3.152,3.861-3.467,2.915a4.967,4.967,0,0,0-2.68-3.231,5.479,5.479,0,0,0-7.249,2.758,5.548,5.548,0,0,0,2.758,7.25,6.351,6.351,0,0,0,6.067-.788c1.5-1.182,3.862-3.389,5.911-8.747L65.1,14.342C70.142,2.207,73.766,2.049,75.421,2.049V.71H59.976Z" style="fill: #231815"/>
    <path d="M93.4,0c-10.875,0-18.44,7.959-18.44,19.07,0,9.22,7.092,18.755,17.415,18.755,10.56,0,15.209-6.225,16.47-10.323l-1.34-.709c-1.97,3.7-8.274,5.279-12.53,4.334-5.279-1.182-9.219-5.2-9.849-12.924h25.058C110.181,5.91,104.823,0,93.4,0ZM93,1.34c4.151,0,7.281,5.141,7.54,14.294H85.155C85.481,8.461,88.605,1.34,93,1.34Z" style="fill: #231815"/>
    <path d="M136.518,2.049c8.589,0,3.7,11.9,3.7,11.9l-4.334,10.717-7.8-16.706s-2.916-5.91,1.5-5.91V.71h-18.6V2.049c1.418,0,3.467,0,5.358,4.177,0,0,.709,1.339,14.657,31.6h1.262l9.376-23.561c5.044-12.136,8.432-12.215,10.245-12.215V.71H136.518Z" style="fill: #231815"/>
    <path d="M170.717,0c-11.978,0-18.754,8.511-18.754,18.913,0,10.322,6.776,18.912,18.754,18.912,12.058,0,18.756-8.59,18.756-18.912C189.473,8.511,182.775,0,170.717,0Zm0,36.485c-5.672,0-7.17-3.309-7.17-17.572s1.5-17.573,7.17-17.573,7.093,3.31,7.093,17.573S176.392,36.485,170.717,36.485Z" style="fill: #231815"/>
    <path d="M236.133.71V2.049c8.747,0,4.176,11.9,4.176,11.9l-4.018,10.481L228.1,7.171s-2.916-5.122,2.049-5.122V.71H211.468V2.049c1.34,0,3.23,0,5.044,3.388,0,0,.314.552,2.678,5.753l-5.043,13.239L205.952,7.171s-2.679-5.122,1.97-5.122V.71h-18.6V2.049c1.261,0,3.232,0,4.966,3.388,0,0,1.1,2.128,15.05,32.388h1.34l9.3-24.98,11.506,24.98h1.261l9.061-23.561c4.414-12.057,8.354-12.215,9.772-12.215V.71Z" style="fill: #231815"/>
  </g>
</svg>
