<svg xmlns="http://www.w3.org/2000/svg" width="260.472mm" height="101.418mm" viewBox="0 0 738.345 287.485">
  <title>copy</title>
  <g>
    <path d="M111.624,28.152v83.669c0,16.143-1.575,20.671,8.663,23.427V138.6H79.338v-3.347c5.315-1.969,4.725-7.284,4.725-23.427v-37.6H36.421v37.6c0,16.143-.788,21.458,4.725,23.427V138.6H0v-3.347c10.434-2.756,8.859-7.284,8.859-23.427V28.152c0-15.158.591-23.034-8.859-24.8V0H41.146V3.347c-5.513,1.771-4.725,9.647-4.725,24.805V70.281H84.063V28.152c0-15.158.787-23.034-4.725-24.8V0h40.949V3.347C111.034,5.118,111.624,12.994,111.624,28.152Z" style="fill: #fff"/>
    <path d="M232.106,131.7v3.347L202.97,140.17c-5.316.788-5.512-3.74-5.512-3.74V119.105c-4.725,11.222-21.065,21.262-33.271,21.262-15.553,0-24.806-6.5-24.806-30.121V68.116c0-11.811.394-13.584-11.024-15.159V49.61l35.436-3.74v63.786c0,11.024,5.118,16.339,16.537,16.339,5.512,0,12.993-4.921,17.128-12.8V68.707c0-12.009.787-14.569-9.253-15.75V49.61l33.861-3.74v74.613C222.066,129.933,223.838,130.72,232.106,131.7Z" style="fill: #fff"/>
    <path d="M398.065,138.6H357.51v-3.347c7.481-2.165,7.875-10.631,7.875-20.671V76.385c0-11.025-5.513-16.34-14.372-16.34-7.284,0-15.552,8.859-15.552,16.733v37.8c0,10.828.984,18.9,8.071,20.671V138.6H302.978v-3.347c7.481-2.165,7.874-10.631,7.874-20.671V76.385c0-11.025-5.315-16.34-14.174-16.34-7.284,0-15.749,9.056-15.749,16.143v38.783c0,10.828,1.18,18.308,8.071,20.277V138.6H248.642v-3.347c7.481-2.165,7.678-10.237,7.678-20.277V71.857c0-6.89-1.772-10.434-9.843-14.766V53.745l34.452-7.875V66.147c5.315-11.417,17.324-20.277,29.726-20.277,13.781,0,22.247,6.3,24.609,20.868C339.4,54.73,352.785,45.87,365.188,45.87c15.356,0,24.805,6.1,24.805,29.924v38.783c0,10.828.984,18.9,8.072,20.671Z" style="fill: #fff"/>
    <path d="M500.635,125.011l3.346,1.378c-1.575,6.3-10.631,13.978-23.033,13.978,0,0-17.521,0-19.687-15.946-2.953,8.662-14.568,15.946-28.546,15.946,0,0-22.64,0-22.64-20.08,0-21.459,16.537-23.428,50.989-32.09V75.991c0-20.474-11.418-30.711-25-23.624-6.3,3.15-7.087,6.5-5.71,6.693a10.176,10.176,0,0,1,7.285,4.332,11.138,11.138,0,0,1-2.953,15.552,11.316,11.316,0,0,1-15.553-2.953,11.619,11.619,0,0,1-.59-11.812c1.969-3.346,4.528-8.662,15.355-14.371,8.86-4.726,19.1-3.938,19.1-3.938,25.79,0,32.877,16.143,32.877,39.374v29.333s-.2,13.781,9.45,13.781C495.319,128.358,499.453,128.358,500.635,125.011ZM461.064,91.74c-19.293,4.332-25.79,13.584-25.79,23.625,0,0,0,12.993,12.8,12.993,6.695,0,11.223-5.316,12.994-10.04Z" style="fill: #fff"/>
    <path d="M611.667,135.248V138.6H571.112v-3.347c7.481-2.165,7.875-10.631,7.875-20.671V76.385c0-9.45-6.1-16.34-15.947-16.34-7.678,0-16.733,8.269-16.733,16.143v38.783c0,10.828,1.181,18.308,8.071,20.277V138.6H514.02v-3.347c7.481-2.165,7.678-10.237,7.678-20.277V70.479c0-6.891-1.771-9.056-9.843-13.388V53.745l34.452-7.875V66.935c4.527-12.009,20.08-21.065,32.483-21.065,15.356,0,24.805,6.1,24.805,29.924v38.783C603.6,125.405,604.58,133.477,611.667,135.248Z" style="fill: #fff"/>
    <path d="M686.869,129.736s-7.481,10.631-27.56,10.631c-23.822,0-35.634-9.056-35.634-9.056V106.505h3.347c2.952,7.679,9.253,30.515,32.287,30.515,13.976,0,16.339-17.718,1.377-27.562L640.8,97.449c-19.1-11.615-24.215-27.561-13.388-41.735,0,0,7.481-9.844,27.168-9.844,22.64,0,32.484,5.907,32.484,5.907V73.825H683.72c-2.56-6.89-8.86-24.608-29.137-24.608-12.8,0-18.308,15.159-1.181,25.986l19.883,12.4C690.807,98.434,696.713,115.561,686.869,129.736Z" style="fill: #fff"/>
    <path d="M714.922,162.851l-2.022-2.573c10.475-8.085,12.863-20.029,9.923-20.4a16.233,16.233,0,0,1-10.29-4.409,15.137,15.137,0,0,1-.184-21.5,15.306,15.306,0,0,1,21.5,0c9.188,9.187,2.389,25.541-3.491,34.361A40.864,40.864,0,0,1,714.922,162.851Z" style="fill: #fff"/>
    <path d="M72.969,256.775c0,21.129-13.911,30.71-32.284,30.71-7.875,0-14.831-2.362-19.161-6.694-4.725,4.069-12.862,6.956-12.862,4.856V203.885c0-4.462-1.313-6.43-6.693-8.4v-2.232L24.935,188.4v47.246c4.2-7.874,13.912-11.155,20.211-11.155C59.845,224.49,72.969,236.039,72.969,256.775ZM54.2,257.825c0-21-4.856-27.823-15.618-27.823-8.924,0-13.649,7.349-13.649,16.668v16.667c0,16.536,8.138,21.917,15.618,21.917C50.133,285.254,54.2,277.9,54.2,257.825Z" style="fill: #fff"/>
    <path d="M141.085,254.807H99.35c1.05,12.861,7.612,19.554,16.406,21.523,7.086,1.574,17.586-1.05,20.867-7.219l2.23,1.182c-2.1,6.824-9.842,17.192-27.428,17.192-17.193,0-29-15.88-29-31.235,0-18.5,12.6-31.76,30.711-31.76C132.16,224.49,141.085,234.333,141.085,254.807Zm-16.011-2.232c0-16.536-5.381-25.855-12.6-25.855-7.744,0-13.125,13.257-13.125,25.855Z" style="fill: #fff"/>
    <path d="M231.249,277.248l2.231.919c-1.05,4.2-7.086,9.318-15.355,9.318,0,0-11.68,0-13.124-10.63-1.968,5.774-9.711,10.63-19.029,10.63,0,0-15.093,0-15.093-13.387,0-14.3,11.024-15.617,33.991-21.392V244.57c0-13.649-7.612-20.474-16.667-15.749-4.2,2.1-4.725,4.331-3.806,4.462a6.783,6.783,0,0,1,4.856,2.887,7.427,7.427,0,0,1-1.969,10.369,7.545,7.545,0,0,1-10.368-1.969,7.747,7.747,0,0,1-.394-7.874c1.313-2.232,3.019-5.775,10.237-9.582a26.15,26.15,0,0,1,12.731-2.624c17.192,0,21.916,10.761,21.916,26.248v19.555s-.131,9.186,6.3,9.186C227.706,279.479,230.462,279.479,231.249,277.248ZM204.87,255.069c-12.862,2.887-17.192,9.055-17.192,15.748,0,0,0,8.662,8.53,8.662,4.462,0,7.481-3.543,8.662-6.693Z" style="fill: #fff"/>
    <path d="M339.787,286.3H312.752v-2.232c4.987-1.443,5.249-7.086,5.249-13.779V244.832c0-7.349-3.675-10.893-9.58-10.893-4.856,0-10.368,5.906-10.368,11.156v25.2c0,7.218.656,12.6,5.38,13.779V286.3H276.4v-2.232c4.988-1.443,5.25-7.086,5.25-13.779V244.832c0-7.349-3.543-10.893-9.449-10.893-4.856,0-10.5,6.038-10.5,10.762v25.854c0,7.218.788,12.2,5.381,13.517V286.3h-26.9v-2.232c4.987-1.443,5.119-6.824,5.119-13.517V241.813c0-4.593-1.182-6.955-6.563-9.843v-2.23l22.967-5.25v13.518c3.544-7.613,11.549-13.518,19.817-13.518,9.188,0,14.831,4.2,16.406,13.912,2.756-8.007,11.68-13.912,19.948-13.912,10.237,0,16.537,4.068,16.537,19.948v25.855c0,7.218.656,12.6,5.38,13.779Z" style="fill: #fff"/>
    <path d="M413.155,256.775c0,21.129-13.912,30.71-32.285,30.71-7.875,0-14.831-2.362-19.161-6.694-4.725,4.069-12.862,6.956-12.862,4.856V203.885c0-4.462-1.312-6.43-6.693-8.4v-2.232l22.967-4.855v47.246c4.2-7.874,13.911-11.155,20.211-11.155C400.031,224.49,413.155,236.039,413.155,256.775Zm-18.768,1.05c0-21-4.856-27.823-15.617-27.823-8.924,0-13.649,7.349-13.649,16.668v16.667c0,16.536,8.137,21.917,15.617,21.917C390.319,285.254,394.387,277.9,394.387,257.825Z" style="fill: #fff"/>
    <path d="M448.329,284.072V286.3h-26.9v-2.232c4.987-1.574,5.249-7.086,5.249-13.779V241.157c0-4.461-1.312-6.3-6.693-9.187v-2.23l22.967-5.25v45.8C442.948,277.642,443.6,282.76,448.329,284.072ZM433.5,213.991a8.925,8.925,0,1,1,0-17.849,8.925,8.925,0,1,1,0,17.849Z" style="fill: #fff"/>
    <path d="M495.445,273.574l1.969,1.181c-2.625,6.168-10.631,12.73-19.423,12.73-10.368,0-16.536-4.2-16.536-20.08V227.9h-6.563l-.393-2.231h6.956V208.085l16.4-2.756v20.342h15.617l-.524,2.231H477.859v39.109c0,7.35,3.15,11.156,9.712,11.156A9.642,9.642,0,0,0,495.445,273.574Z" style="fill: #fff"/>
    <path d="M534.162,284.072V286.3h-26.9v-2.232c4.987-1.574,5.249-7.086,5.249-13.779V241.157c0-4.461-1.312-6.3-6.693-9.187v-2.23l22.967-5.25v45.8C528.781,277.642,529.437,282.76,534.162,284.072Zm-14.83-70.081a8.925,8.925,0,1,1,0-17.849,8.925,8.925,0,1,1,0,17.849Z" style="fill: #fff"/>
    <path d="M605.82,255.987c0,17.193-11.157,31.5-31.236,31.5-19.949,0-31.235-14.305-31.235-31.5,0-17.324,11.286-31.5,31.235-31.5C594.663,224.49,605.82,238.663,605.82,255.987Zm-19.425,0c0-23.754-2.361-29.267-11.811-29.267s-11.943,5.513-11.943,29.267,2.494,29.267,11.943,29.267S586.4,279.742,586.4,255.987Z" style="fill: #fff"/>
    <path d="M679.186,281.711v2.23l-19.424,3.412c-3.543.526-3.675-2.493-3.675-2.493V273.311c-3.149,7.48-14.042,14.174-22.179,14.174-10.367,0-16.536-4.331-16.536-20.08V239.32c0-7.874.262-9.056-7.349-10.1v-2.232l23.623-2.493v42.521c0,7.35,3.412,10.893,11.024,10.893,3.675,0,8.662-3.28,11.417-8.53v-29.66c0-8.006.526-9.712-6.167-10.5v-2.232l22.572-2.493v49.74C672.492,280.529,673.674,281.054,679.186,281.711Z" style="fill: #fff"/>
    <path d="M731.815,280.4s-4.987,7.086-18.374,7.086c-15.88,0-23.754-6.037-23.754-6.037V264.912h2.231c1.969,5.118,6.168,20.342,21.523,20.342,9.318,0,10.893-11.811.919-18.373l-13.255-8.007c-12.73-7.742-16.143-18.373-8.924-27.822,0,0,4.987-6.562,18.111-6.562,15.092,0,21.654,3.937,21.654,3.937v14.7h-2.231c-1.706-4.594-5.905-16.406-19.423-16.406-8.531,0-12.206,10.106-.788,17.324l13.255,8.268C734.439,259.531,738.377,270.949,731.815,280.4Z" style="fill: #fff"/>
  </g>
</svg>
